<svg xmlns="http://www.w3.org/2000/svg" width="256" height="256" viewBox="0 0 100 100"><path d="M25.25 80.60L25.25 80.60Q18.77 80.60 13.32 78.26Q7.88 75.92 3.83 71.87L3.83 71.87L8.33 66.65Q11.66 69.98 16.07 72.00Q20.48 74.03 25.61 74.03L25.61 74.03Q31.73 74.03 35.10 71.42Q38.48 68.81 38.48 64.67L38.48 64.67Q38.48 62.33 37.67 60.71Q36.86 59.09 35.42 57.92Q33.98 56.75 32.04 55.85Q30.11 54.95 27.86 53.96L27.86 53.96L19.40 50.27Q17.15 49.37 14.90 48.11Q12.65 46.85 10.80 45.05Q8.96 43.25 7.79 40.77Q6.62 38.30 6.62 35.06L6.62 35.06Q6.62 31.73 8.06 28.85Q9.50 25.97 12.06 23.85Q14.63 21.74 18.18 20.57Q21.74 19.40 25.97 19.40L25.97 19.40Q31.55 19.40 36.23 21.42Q40.91 23.45 44.15 26.69L44.15 26.69L40.19 31.55Q37.31 28.94 33.80 27.45Q30.29 25.97 25.70 25.97L25.70 25.97Q20.57 25.97 17.42 28.27Q14.27 30.56 14.27 34.61L14.27 34.61Q14.27 36.77 15.21 38.25Q16.16 39.74 17.64 40.86Q19.13 41.99 21.02 42.80Q22.91 43.61 24.80 44.42L24.80 44.42L33.08 48.02Q35.78 49.10 38.16 50.49Q40.55 51.89 42.30 53.73Q44.06 55.58 45.09 58.05Q46.13 60.53 46.13 63.77L46.13 63.77Q46.13 67.28 44.69 70.34Q43.25 73.40 40.55 75.69Q37.85 77.99 33.98 79.30Q30.11 80.60 25.25 80.60ZM76.64 80.60L76.64 80.60Q71.69 80.60 66.92 78.26Q62.15 75.92 59.09 70.79L59.09 70.79L63.77 66.20Q66.29 70.25 69.66 72.14Q73.04 74.03 76.46 74.03L76.46 74.03Q82.85 74.03 85.78 70.66Q88.70 67.28 88.70 59.99L88.70 59.99L88.70 26.69L63.95 26.69L63.95 20.39L96.17 20.39L96.17 60.62Q96.17 64.76 95.18 68.41Q94.19 72.05 91.89 74.75Q89.60 77.45 85.86 79.02Q82.13 80.60 76.64 80.60Z" fill="#000000"></path></svg>